<svg width="6" height="4" viewBox="0 0 6 4" fill="none" xmlns="http://www.w3.org/2000/svg">
<path d="M3 3.42857C2.89629 3.42812 2.79685 3.38672 2.72289 3.31321L0.114783 0.676375C0.0412888 0.602071 0 0.501293 0 0.396211C0 0.291129 0.0412888 0.190352 0.114783 0.116048C0.188278 0.0417435 0.287958 0 0.391894 0C0.495831 0 0.595511 0.0417435 0.669006 0.116048L3 2.47272L5.33099 0.116048C5.40449 0.0417435 5.50417 -2.07141e-09 5.60811 0C5.71204 2.07141e-09 5.81172 0.0417435 5.88522 0.116048C5.95871 0.190352 6 0.291129 6 0.396211C6 0.501293 5.95871 0.602071 5.88522 0.676375L3.27711 3.31321C3.20315 3.38672 3.10371 3.42812 3 3.42857Z" fill="black"/>
</svg>
