<svg width="65" height="65" viewBox="0 0 65 65" fill="none" xmlns="http://www.w3.org/2000/svg">
<circle cx="32.5" cy="32.5" r="32.5" fill="#F4F4F4"/>
<path d="M16.2848 28.6511C16.0577 28.6532 15.8342 28.5951 15.6369 28.4828C15.4921 28.4015 15.365 28.2921 15.2631 28.161C15.1611 28.0299 15.0864 27.8799 15.0431 27.7195C14.9999 27.5592 14.989 27.3919 15.0112 27.2274C15.0334 27.0628 15.0882 26.9043 15.1724 26.7612C16.7947 24.0534 21.7307 17.7332 32.5013 17.7332C37.1689 17.7332 41.2626 18.9592 44.6629 21.3759C47.4616 23.3592 49.03 25.6042 49.7773 26.6855C49.872 26.8218 49.9386 26.9756 49.973 27.138C50.0074 27.3004 50.0089 27.4681 49.9776 27.6311C49.9462 27.7941 49.8826 27.9492 49.7904 28.0872C49.6981 28.2253 49.5793 28.3435 49.4407 28.4349C49.1575 28.6221 48.8125 28.6916 48.4788 28.6288C48.1452 28.566 47.8491 28.3757 47.6534 28.0983C46.3012 26.1537 42.1781 20.2365 32.5013 20.2365C23.056 20.2365 18.7856 25.6816 17.3947 28.0167C17.2829 28.2116 17.1211 28.3733 16.926 28.4848C16.7309 28.5963 16.5095 28.6537 16.2848 28.6511Z" fill="black"/>
<path d="M37.9279 53.3899C37.8205 53.3912 37.7134 53.3791 37.609 53.3537C29.7961 51.4184 26.8787 43.608 26.7601 43.2832L26.7416 43.2117C26.6776 42.9862 25.11 37.6303 27.5166 34.4933C28.6197 33.0629 30.2976 32.3291 32.5131 32.3291C34.573 32.3291 36.059 32.9695 37.0806 34.2948C37.922 35.3769 38.2586 36.7114 38.5842 37.9972C39.2684 40.6747 39.7623 42.0808 42.6056 42.2255C43.8543 42.2886 44.6747 41.5582 45.14 40.9364C46.398 39.2408 46.6168 36.4767 45.6685 34.0364C44.45 30.8869 40.1258 24.9487 32.5014 24.9487C29.2466 24.9487 26.2561 25.9946 23.8579 27.9603C21.8729 29.5885 20.3002 31.8874 19.5429 34.2502C18.1385 38.6493 19.9805 45.5644 19.9982 45.6275C20.0412 45.7884 20.0515 45.9564 20.0286 46.1214C20.0057 46.2864 19.9499 46.4451 19.8647 46.5882C19.7795 46.7313 19.6664 46.856 19.5322 46.9547C19.3981 47.0534 19.2455 47.1243 19.0835 47.1632C18.7562 47.2502 18.4079 47.2055 18.1131 47.0388C17.8184 46.8721 17.6006 46.5965 17.5066 46.2712C17.4225 45.9557 15.4551 38.5803 17.0775 33.4962C18.8445 27.9872 24.298 22.4336 32.5039 22.4336C36.2963 22.4336 39.8792 23.7227 42.8698 26.157C45.1855 28.0503 47.0771 30.5932 48.0666 33.1352C49.3246 36.3807 48.9872 40.0234 47.2092 42.403C46.0244 43.99 44.3373 44.8197 42.4684 44.7297C37.5997 44.4856 36.7246 41.087 36.0868 38.6081C35.4305 36.0652 35.0106 34.8392 32.5039 34.8392C31.1273 34.8392 30.1604 35.2178 29.5588 36.0021C28.7384 37.0749 28.6744 38.752 28.7653 39.9687C28.825 40.8164 28.9687 41.6561 29.1944 42.4754C29.3947 42.9803 32.0024 49.3753 38.2477 50.9228C38.4091 50.961 38.5613 51.031 38.6955 51.1285C38.8296 51.2261 38.9431 51.3494 39.0292 51.4911C39.1153 51.6329 39.1724 51.7904 39.1971 51.9544C39.2218 52.1185 39.2137 52.2858 39.1733 52.4467C39.0971 52.7182 38.9341 52.9574 38.7092 53.1277C38.4844 53.2981 38.21 53.3901 37.9279 53.3899Z" fill="black"/>
<path d="M27.8994 52.8127C27.7243 52.813 27.5509 52.7781 27.3895 52.71C27.2282 52.6419 27.0822 52.5421 26.9603 52.4163C23.8335 49.1347 22.0647 45.4651 21.3991 40.8766V40.8522C21.0255 37.8145 21.5725 33.5139 24.2525 30.557C26.2308 28.3751 29.0118 27.2661 32.5038 27.2661C36.6337 27.2661 39.8792 29.1863 41.9029 32.8104C43.3713 35.4433 43.6624 38.067 43.67 38.1747C43.6854 38.3408 43.6679 38.5082 43.6184 38.6675C43.569 38.8268 43.4887 38.9748 43.382 39.103C43.2753 39.2312 43.1443 39.337 42.9967 39.4145C42.849 39.4921 42.6875 39.5397 42.5214 39.5547C42.1862 39.5911 41.8502 39.4942 41.5859 39.2849C41.3216 39.0757 41.1501 38.7709 41.1086 38.4364C40.8869 36.8621 40.3775 35.3421 39.6057 33.9523C38.0373 31.1847 35.6509 29.7778 32.4946 29.7778C29.7683 29.7778 27.6352 30.5982 26.1677 32.218C24.0523 34.5531 23.6433 38.1503 23.9336 40.5299C24.5167 44.5874 26.076 47.8153 28.8292 50.6998C28.9441 50.8193 29.0338 50.9607 29.093 51.1156C29.1521 51.2705 29.1796 51.4358 29.1736 51.6015C29.1676 51.7672 29.1284 51.93 29.0583 52.0803C28.9881 52.2305 28.8885 52.3651 28.7653 52.4761C28.528 52.6912 28.2196 52.811 27.8994 52.8127Z" fill="black"/>
<path d="M42.3043 49.1978C39.5696 49.1978 37.2447 48.4405 35.3842 46.9351C31.6464 43.9235 31.2274 39.0187 31.2089 38.8117C31.1826 38.4719 31.2923 38.1356 31.5139 37.8767C31.7355 37.6178 32.0509 37.4576 32.3907 37.4313C32.7305 37.4049 33.0668 37.5146 33.3257 37.7363C33.5846 37.9579 33.7448 38.2733 33.7711 38.6131C33.7804 38.6855 34.154 42.6975 37.0351 45.0082C38.7399 46.3696 41.0186 46.9098 43.8265 46.5943C44.1621 46.5536 44.5002 46.6474 44.7668 46.8552C45.0334 47.063 45.207 47.368 45.2494 47.7033C45.2678 47.869 45.253 48.0367 45.2059 48.1966C45.1588 48.3565 45.0803 48.5054 44.975 48.6346C44.8698 48.7639 44.7398 48.8708 44.5927 48.9493C44.4457 49.0278 44.2845 49.0762 44.1185 49.0917C43.5163 49.162 42.9106 49.1974 42.3043 49.1978ZM44.4652 15.7591C43.3982 15.0649 39.615 13 32.5014 13C25.0343 13 21.2418 15.2812 20.4029 15.861C20.3475 15.895 20.2956 15.9344 20.2481 15.9788C20.2431 15.9836 20.2365 15.9866 20.2296 15.9872C20.0956 16.1041 19.9881 16.2483 19.9143 16.4101C19.8404 16.5719 19.8019 16.7476 19.8013 16.9254C19.8036 17.0921 19.8387 17.2567 19.9048 17.4098C19.9708 17.5629 20.0664 17.7014 20.1861 17.8175C20.3058 17.9336 20.4472 18.0249 20.6022 18.0863C20.7572 18.1476 20.9228 18.1777 21.0895 18.175C21.3567 18.1748 21.6175 18.0929 21.8368 17.9402C21.8729 17.9133 25.1369 15.5151 32.5039 15.5151C39.8708 15.5151 43.1525 17.9048 43.1879 17.9225C43.4119 18.0886 43.6839 18.1773 43.9628 18.175C44.1297 18.1775 44.2954 18.1471 44.4504 18.0855C44.6055 18.0238 44.7468 17.9322 44.8664 17.8157C44.9859 17.6993 45.0813 17.5604 45.147 17.4071C45.2128 17.2537 45.2476 17.0889 45.2494 16.922C45.2495 16.6721 45.1749 16.4279 45.0351 16.2207C44.8954 16.0134 44.6969 15.8527 44.4652 15.7591Z" fill="black"/>
</svg>
