<svg width="65" height="65" viewBox="0 0 65 65" fill="none" xmlns="http://www.w3.org/2000/svg">
<circle cx="32.5" cy="32.5" r="32.5" fill="#F4F4F4"/>
<path d="M22.0008 23.9138C21.9955 24.0397 22.016 24.1654 22.061 24.2831C22.106 24.4008 22.1747 24.5081 22.2627 24.5983C22.3507 24.6885 22.4562 24.7597 22.5728 24.8077C22.6894 24.8556 22.8145 24.8791 22.9406 24.8769H26.1575C26.6956 24.8769 27.1245 24.4363 27.1947 23.9021C27.5456 21.3441 29.3003 19.4803 32.4275 19.4803C35.1024 19.4803 37.5512 20.8177 37.5512 24.0346C37.5512 26.5107 36.0929 27.6493 33.7884 29.3806C31.1642 31.2873 29.0858 33.5138 29.234 37.1285L29.2457 37.9746C29.2498 38.2304 29.3543 38.4744 29.5367 38.6538C29.7191 38.8333 29.9647 38.9339 30.2205 38.9338H33.3828C33.6414 38.9338 33.8893 38.8311 34.0722 38.6483C34.255 38.4655 34.3577 38.2175 34.3577 37.959V37.5496C34.3577 34.7499 35.4222 33.9349 38.2959 31.7552C40.6706 29.9499 43.1467 27.9456 43.1467 23.7383C43.1467 17.8465 38.1712 15 32.7239 15C27.7835 15 22.3713 17.3006 22.0008 23.9138ZM28.072 46.3854C28.072 48.4637 29.7292 50 32.0103 50C34.385 50 36.0188 48.4637 36.0188 46.3854C36.0188 44.233 34.3811 42.72 32.0064 42.72C29.7292 42.72 28.072 44.233 28.072 46.3854Z" fill="black"/>
</svg>
