<svg width="381" height="379" viewBox="0 0 381 379" fill="none" xmlns="http://www.w3.org/2000/svg">
<path d="M161.932 355.607C162.853 355.757 163.657 356.05 164.342 356.486C165.026 356.935 165.53 357.49 165.854 358.151C166.179 358.811 166.277 359.537 166.148 360.326L163.74 359.934C163.784 359.333 163.633 358.809 163.287 358.361C162.928 357.911 162.374 357.624 161.624 357.502C160.847 357.376 160.212 357.461 159.717 357.759C159.221 358.07 158.925 358.522 158.828 359.114C158.753 359.574 158.83 359.972 159.059 360.306C159.275 360.639 159.575 360.917 159.957 361.142C160.326 361.364 160.851 361.625 161.531 361.925C162.388 362.307 163.08 362.663 163.607 362.992C164.119 363.332 164.53 363.791 164.842 364.369C165.153 364.946 165.239 365.663 165.1 366.518C164.971 367.308 164.661 367.966 164.17 368.494C163.679 369.022 163.052 369.386 162.29 369.586C161.528 369.786 160.68 369.81 159.745 369.658C158.416 369.442 157.385 368.929 156.652 368.121C155.904 367.324 155.578 366.339 155.674 365.166L158.162 365.571C158.12 366.077 158.287 366.543 158.663 366.969C159.04 367.395 159.583 367.666 160.294 367.782C160.939 367.887 161.492 367.808 161.953 367.546C162.415 367.283 162.696 366.843 162.797 366.224C162.865 365.803 162.797 365.434 162.592 365.117C162.372 364.811 162.077 364.547 161.708 364.324C161.339 364.102 160.827 363.843 160.173 363.548C159.306 363.15 158.609 362.78 158.084 362.437C157.546 362.093 157.122 361.626 156.813 361.035C156.489 360.455 156.397 359.731 156.539 358.863C156.652 358.165 156.95 357.538 157.433 356.982C157.902 356.423 158.529 356.012 159.315 355.748C160.086 355.496 160.958 355.449 161.932 355.607Z" fill="black"/>
<path d="M149.886 365.634L150.805 361.659L146.129 360.578L146.548 358.766L151.224 359.847L152.184 355.697L146.923 354.48L147.342 352.668L154.825 354.398L151.688 367.96L144.206 366.23L144.625 364.418L149.886 365.634Z" fill="black"/>
<path d="M129.283 361.734L138.346 349.973L140.87 350.747L141.809 365.572L139.476 364.857L138.922 352.597L131.578 362.437L129.283 361.734Z" fill="black"/>
<path d="M125.773 358.299L127.238 354.491L122.758 352.768L123.426 351.032L127.906 352.755L129.436 348.78L124.396 346.84L125.064 345.104L132.232 347.862L127.233 360.854L120.065 358.096L120.733 356.36L125.773 358.299Z" fill="black"/>
<path d="M112.322 339.201L114.386 340.169L116.187 352.48L120.596 343.083L122.66 344.052L116.747 356.654L114.683 355.685L112.873 343.392L108.473 352.771L106.409 351.802L112.322 339.201Z" fill="black"/>
<path d="M101.712 335.317L96.2078 331.936L97.244 330.249L105.049 335.042L104.118 336.559L93.3236 341.829L98.8113 345.2L97.7751 346.887L89.9696 342.093L90.9011 340.576L101.712 335.317Z" fill="black"/>
<path d="M86.6704 337.514L89.0203 334.179L85.0965 331.414L86.1677 329.894L90.0916 332.658L92.5452 329.176L88.1309 326.066L89.2021 324.545L95.4804 328.968L87.463 340.348L81.1847 335.924L82.256 334.404L86.6704 337.514Z" fill="black"/>
<path d="M81.5104 318.365L80.4961 324.699L81.848 325.795L85.3484 321.475L87.1199 322.91L78.3688 333.71L74.6395 330.688C73.8108 330.016 73.229 329.305 72.8943 328.553C72.5492 327.793 72.4341 327.056 72.5489 326.342C72.6534 325.62 72.9491 324.959 73.436 324.358C74.0068 323.654 74.7344 323.179 75.6189 322.935C76.4846 322.693 77.4261 322.812 78.4434 323.293L79.3971 316.652L81.5104 318.365ZM80.7022 327.209L78.7443 325.622C78.0813 325.085 77.4498 324.848 76.8497 324.911C76.2392 324.965 75.7073 325.272 75.254 325.831C74.8007 326.391 74.6139 326.96 74.6936 327.54C74.7648 328.129 75.1371 328.697 75.8105 329.243L77.7684 330.829L80.7022 327.209Z" fill="black"/>
<path d="M73.2405 310.639C74.1772 311.531 74.8346 312.571 75.2128 313.76C75.5721 314.949 75.6112 316.155 75.33 317.378C75.03 318.602 74.4111 319.707 73.4734 320.692C72.5356 321.677 71.4675 322.344 70.2689 322.695C69.0607 323.035 67.8586 323.051 66.6627 322.741C65.4479 322.431 64.3722 321.83 63.4355 320.939C62.4891 320.038 61.8363 318.993 61.477 317.804C61.0988 316.615 61.0552 315.414 61.346 314.2C61.6368 312.985 62.2511 311.886 63.1888 310.901C64.1266 309.916 65.1993 309.243 66.4071 308.884C67.6056 308.533 68.8123 308.513 70.027 308.823C71.223 309.133 72.2941 309.739 73.2405 310.639ZM71.8752 312.074C71.2089 311.439 70.4725 311.023 69.666 310.826C68.8504 310.639 68.0311 310.687 67.2081 310.972C66.3663 311.256 65.5915 311.771 64.8836 312.514C64.1757 313.258 63.7048 314.052 63.4709 314.897C63.2274 315.733 63.2239 316.549 63.4603 317.345C63.6968 318.141 64.1482 318.856 64.8145 319.49C65.4808 320.124 66.2172 320.54 67.0237 320.737C67.8302 320.934 68.6497 320.895 69.4823 320.62C70.3053 320.336 71.0707 319.822 71.7786 319.078C72.4865 318.335 72.9668 317.54 73.2195 316.695C73.4534 315.85 73.4567 315.024 73.2294 314.219C72.9929 313.423 72.5416 312.708 71.8752 312.074Z" fill="black"/>
<path d="M46.9888 302.551L48.4156 301.358L52.2008 305.883L55.3458 303.253L52.3946 299.724L53.8213 298.531L56.7725 302.06L61.4363 298.159L62.8991 299.908L52.2368 308.826L46.9888 302.551Z" fill="black"/>
<path d="M43.8825 298.352L54.9807 289.983L56.3535 291.803L45.2553 300.172L43.8825 298.352Z" fill="black"/>
<path d="M34.2821 284.328L48.7455 280.972L50.2084 283.169L41.541 295.233L40.189 293.202L47.5291 283.367L35.612 286.326L34.2821 284.328Z" fill="black"/>
<path d="M33.7432 279.447L37.2894 277.429L34.9158 273.257L36.5324 272.337L38.9061 276.509L42.6087 274.403L39.9384 269.709L41.555 268.789L45.3529 275.464L33.254 282.348L29.4562 275.673L31.0728 274.753L33.7432 279.447Z" fill="black"/>
<path d="M27.1757 249.071C27.3176 249.459 27.3052 249.833 27.1384 250.192C26.9716 250.551 26.6942 250.802 26.306 250.944C25.9178 251.086 25.5441 251.073 25.185 250.907C24.8258 250.74 24.5753 250.462 24.4333 250.074C24.2959 249.698 24.3106 249.331 24.4774 248.972C24.6442 248.613 24.9217 248.362 25.3099 248.22C25.6981 248.078 26.0717 248.091 26.4309 248.257C26.79 248.424 27.0383 248.695 27.1757 249.071Z" fill="black"/>
<path d="M24.6911 218.895C24.858 219.813 24.8508 220.668 24.6694 221.46C24.475 222.254 24.1207 222.915 23.6067 223.442C23.0926 223.969 22.4421 224.304 21.655 224.447L21.2187 222.046C21.7995 221.887 22.2431 221.569 22.5497 221.093C22.8538 220.604 22.938 219.986 22.8021 219.238C22.6614 218.464 22.3681 217.894 21.9221 217.528C21.463 217.164 20.9383 217.036 20.3479 217.143C19.8888 217.227 19.5399 217.432 19.3014 217.76C19.0605 218.075 18.8983 218.45 18.8147 218.885C18.7288 219.308 18.6584 219.889 18.6035 220.631C18.5295 221.566 18.4257 222.337 18.292 222.944C18.1429 223.54 17.8483 224.082 17.4082 224.568C16.9681 225.055 16.3217 225.376 15.469 225.531C14.6819 225.674 13.9574 225.602 13.2956 225.316C12.6337 225.03 12.081 224.561 11.6374 223.91C11.1938 223.258 10.8874 222.467 10.7182 221.536C10.4774 220.211 10.6152 219.068 11.1317 218.107C11.6326 217.135 12.452 216.498 13.5897 216.196L14.0403 218.676C13.549 218.806 13.1655 219.119 12.89 219.616C12.6145 220.114 12.5411 220.717 12.6698 221.425C12.7866 222.068 13.046 222.563 13.4478 222.91C13.8497 223.257 14.3589 223.374 14.9755 223.262C15.3953 223.186 15.7203 222.998 15.9504 222.699C16.1651 222.389 16.3154 222.023 16.4013 221.601C16.4872 221.178 16.56 220.61 16.6197 219.894C16.7045 218.944 16.8202 218.164 16.967 217.554C17.1113 216.932 17.4101 216.376 17.8633 215.887C18.301 215.388 18.9528 215.059 19.8186 214.902C20.5139 214.775 21.2044 214.846 21.8901 215.115C22.5734 215.37 23.1709 215.824 23.6824 216.476C24.1785 217.118 24.5147 217.924 24.6911 218.895Z" fill="black"/>
<path d="M11.2109 210.899L15.2644 210.435L14.7187 205.666L16.5666 205.455L17.1124 210.224L21.3448 209.739L20.7308 204.374L22.5787 204.163L23.4519 211.793L9.62219 213.376L8.74899 205.746L10.5969 205.534L11.2109 210.899Z" fill="black"/>
<path d="M7.99164 190.179L22.1074 194.783L22.2234 197.421L8.56684 203.266L8.4597 200.829L19.8277 196.205L8.09702 192.576L7.99164 190.179Z" fill="black"/>
<path d="M10.0544 185.721L14.133 185.827L14.2583 181.029L16.1177 181.078L15.9924 185.876L20.251 185.987L20.3919 180.589L22.2512 180.638L22.0508 188.315L8.13556 187.952L8.33599 180.274L10.1954 180.323L10.0544 185.721Z" fill="black"/>
<path d="M23.5504 166.655L23.3284 168.924L12.3298 174.74L22.6605 175.751L22.4385 178.02L8.58463 176.665L8.80663 174.396L19.7854 168.577L9.47458 167.568L9.69658 165.299L23.5504 166.655Z" fill="black"/>
<path d="M23.6612 155.357L25.005 149.039L26.9417 149.45L25.0362 158.41L23.2951 158.04L14.7167 149.631L13.377 155.93L11.4403 155.518L13.3458 146.559L15.0869 146.929L23.6612 155.357Z" fill="black"/>
<path d="M16.5567 141.918L20.4861 143.016L21.7783 138.394L23.5696 138.894L22.2774 143.517L26.3801 144.664L27.8339 139.463L29.6252 139.964L27.5576 147.36L14.1516 143.613L16.2192 136.217L18.0105 136.717L16.5567 141.918Z" fill="black"/>
<path d="M32.8755 130.647L26.5668 131.811L25.9869 133.452L31.229 135.305L30.4691 137.454L17.3638 132.822L18.9637 128.296C19.3192 127.29 19.7952 126.504 20.3916 125.937C20.9924 125.358 21.6483 125.003 22.3591 124.872C23.0744 124.729 23.7965 124.786 24.5257 125.044C25.3805 125.346 26.071 125.873 26.5972 126.625C27.1153 127.359 27.3178 128.287 27.2049 129.406L33.7821 128.083L32.8755 130.647ZM24.271 132.845L25.1109 130.469C25.3953 129.665 25.4075 128.99 25.1474 128.446C24.8918 127.889 24.4246 127.49 23.7457 127.25C23.0669 127.01 22.4678 127.025 21.9485 127.294C21.4166 127.558 21.0062 128.099 20.7173 128.916L19.8774 131.292L24.271 132.845Z" fill="black"/>
<path d="M37.3881 120.269C36.8611 121.45 36.101 122.418 35.1076 123.172C34.1074 123.908 32.9839 124.349 31.7368 124.493C30.483 124.62 29.2351 124.406 27.9931 123.852C26.7511 123.298 25.7646 122.515 25.0336 121.503C24.3081 120.478 23.8913 119.351 23.7834 118.12C23.6687 116.872 23.8748 115.657 24.4018 114.476C24.9341 113.282 25.7004 112.317 26.7005 111.581C27.6939 110.827 28.8114 110.384 30.053 110.252C31.2946 110.119 32.5365 110.33 33.7785 110.884C35.0205 111.438 36.0131 112.224 36.7562 113.242C37.4872 114.254 37.91 115.385 38.0247 116.633C38.1326 117.864 37.9204 119.076 37.3881 120.269ZM35.5798 119.462C35.9547 118.622 36.1 117.789 36.0159 116.963C35.9196 116.132 35.5998 115.376 35.0565 114.696C34.5065 113.998 33.7627 113.44 32.8251 113.021C31.8875 112.603 30.9814 112.425 30.1067 112.487C29.2375 112.538 28.4675 112.807 27.7967 113.297C27.1259 113.786 26.6031 114.45 26.2283 115.29C25.8534 116.131 25.7081 116.964 25.7922 117.79C25.8763 118.616 26.1873 119.375 26.7252 120.067C27.2684 120.748 28.0089 121.297 28.9465 121.715C29.8841 122.134 30.7935 122.32 31.6749 122.276C32.5496 122.213 33.3284 121.94 34.0114 121.456C34.6822 120.967 35.205 120.303 35.5798 119.462Z" fill="black"/>
<path d="M36.226 92.8242L37.8279 93.7694L34.8297 98.8508L38.3608 100.934L40.6984 96.9725L42.3004 97.9177L39.9628 101.88L45.1992 104.969L44.0405 106.933L32.0691 99.8692L36.226 92.8242Z" fill="black"/>
<path d="M39.1436 88.492L50.7439 96.15L49.4878 98.0527L37.8875 90.3948L39.1436 88.492Z" fill="black"/>
<path d="M49.1462 74.7523L57.1492 87.2587L55.5678 89.3726L41.2988 85.2418L42.7605 83.288L54.4848 86.9139L47.7085 76.6741L49.1462 74.7523Z" fill="black"/>
<path d="M53.5665 72.6114L56.6544 75.2781L59.7917 71.6452L61.1994 72.8609L58.0622 76.4937L61.2864 79.278L64.8158 75.1911L66.2235 76.4068L61.2039 82.2193L50.6686 73.1213L55.6882 67.3088L57.0959 68.5244L53.5665 72.6114Z" fill="black"/>
<path d="M79.9934 56.258C79.6751 56.5217 79.3188 56.6351 78.9245 56.5981C78.5303 56.5611 78.2013 56.3834 77.9376 56.0651C77.674 55.7468 77.5606 55.3905 77.5976 54.9963C77.6346 54.602 77.8123 54.2731 78.1306 54.0094C78.4386 53.7542 78.7897 53.6451 79.184 53.6821C79.5782 53.7191 79.9072 53.8968 80.1709 54.2151C80.4346 54.5334 80.5479 54.8897 80.5109 55.2839C80.4739 55.6781 80.3014 56.0029 79.9934 56.258Z" fill="black"/>
<path d="M107.598 43.8188C106.789 44.2834 105.981 44.5627 105.174 44.6568C104.36 44.7393 103.619 44.6265 102.95 44.3185C102.282 44.0104 101.748 43.5095 101.35 42.8156L103.466 41.6012C103.811 42.095 104.259 42.4068 104.81 42.5364C105.373 42.6594 105.984 42.5318 106.643 42.1535C107.325 41.762 107.764 41.2948 107.96 40.752C108.149 40.1977 108.094 39.6603 107.796 39.1399C107.563 38.7351 107.253 38.4752 106.864 38.3601C106.487 38.2384 106.079 38.2111 105.641 38.278C105.214 38.3383 104.642 38.4667 103.925 38.6632C103.019 38.9063 102.258 39.0664 101.641 39.1436C101.029 39.2026 100.421 39.1062 99.8148 38.8542C99.209 38.6023 98.6905 38.1005 98.2591 37.3488C97.861 36.6549 97.686 35.9483 97.7343 35.2288C97.7826 34.5093 98.0394 33.8316 98.5046 33.1957C98.9698 32.5598 99.613 32.0062 100.434 31.535C101.602 30.8648 102.725 30.6122 103.804 30.7773C104.887 30.9241 105.762 31.4832 106.427 32.4544L104.241 33.7086C103.954 33.2891 103.53 33.0327 102.969 32.9395C102.409 32.8462 101.816 32.9788 101.191 33.3371C100.625 33.6623 100.245 34.0723 100.053 34.5672C99.86 35.062 99.9196 35.5812 100.232 36.1247C100.444 36.4948 100.73 36.7382 101.089 36.855C101.453 36.9535 101.848 36.9726 102.275 36.9123C102.701 36.852 103.262 36.7303 103.956 36.5471C104.88 36.3089 105.654 36.157 106.277 36.0914C106.912 36.0191 107.536 36.1147 108.148 36.3782C108.765 36.6235 109.293 37.1278 109.731 37.891C110.083 38.504 110.247 39.1784 110.223 39.9144C110.211 40.6437 109.984 41.3586 109.54 42.059C109.101 42.7411 108.454 43.3277 107.598 43.8188Z" fill="black"/>
<path d="M110.623 28.4402L112.416 32.1049L116.728 29.9948L117.545 31.6655L113.234 33.7755L115.107 37.6018L119.957 35.228L120.775 36.8987L113.877 40.2748L107.757 27.7719L114.656 24.3958L115.473 26.0664L110.623 28.4402Z" fill="black"/>
<path d="M129.071 18.4734L129.456 33.3162L127.009 34.308L116.931 23.3947L119.192 22.4781L127.353 31.6435L126.847 19.375L129.071 18.4734Z" fill="black"/>
<path d="M133.962 18.9251L135.227 22.8043L139.79 21.3167L140.367 23.0851L135.803 24.5727L137.123 28.6229L142.258 26.9494L142.834 28.7178L135.532 31.098L131.218 17.8633L138.52 15.4832L139.096 17.2516L133.962 18.9251Z" fill="black"/>
<path d="M156.445 25.2636L154.233 25.8137L145.071 17.3955L147.575 27.4688L145.363 28.0189L142.004 14.5101L144.217 13.96L153.374 22.3588L150.874 12.3049L153.087 11.7548L156.445 25.2636Z" fill="black"/>
<path d="M167.129 21.5872L173.533 20.7392L173.793 22.7021L164.712 23.9045L164.478 22.1399L169.532 11.2423L163.147 12.0876L162.887 10.1247L171.968 8.92236L172.202 10.687L167.129 21.5872Z" fill="black"/>
<path d="M177.416 10.3957L177.696 14.4661L182.485 14.137L182.612 15.9926L177.824 16.3217L178.116 20.5717L183.503 20.2014L183.631 22.057L175.969 22.5837L175.014 8.69641L182.676 8.16981L182.804 10.0254L177.416 10.3957Z" fill="black"/>
<path d="M193.497 22.0019L190.29 16.4464L188.55 16.4489L188.557 22.0088L186.277 22.012L186.258 8.11205L191.058 8.10533C192.125 8.10383 193.025 8.28924 193.759 8.66155C194.506 9.03383 195.06 9.53306 195.421 10.1592C195.795 10.7854 195.983 11.4851 195.984 12.2584C195.985 13.1651 195.72 13.9921 195.187 14.7396C194.668 15.4736 193.862 15.9747 192.769 16.2429L196.217 21.9981L193.497 22.0019ZM188.547 14.6289L191.067 14.6253C191.92 14.6241 192.56 14.4099 192.986 13.9826C193.426 13.5554 193.645 12.9817 193.644 12.2617C193.643 11.5417 193.429 10.982 193.001 10.5826C192.574 10.1699 191.927 9.96411 191.061 9.96533L188.541 9.96886L188.547 14.6289Z" fill="black"/>
<path d="M204.787 22.7819C203.498 22.6805 202.332 22.288 201.289 21.6042C200.26 20.9081 199.469 19.9967 198.916 18.8698C198.377 17.7308 198.16 16.4833 198.267 15.1275C198.374 13.7717 198.782 12.58 199.491 11.5524C200.214 10.5259 201.137 9.75582 202.26 9.24228C203.398 8.71649 204.612 8.50426 205.901 8.60558C207.204 8.70795 208.37 9.10717 209.398 9.80323C210.441 10.487 211.233 11.3918 211.773 12.5176C212.313 13.6434 212.53 14.8842 212.423 16.24C212.317 17.5958 211.908 18.7942 211.198 19.8351C210.489 20.8626 209.565 21.6393 208.427 22.1651C207.303 22.6787 206.09 22.8842 204.787 22.7819ZM204.943 20.808C205.86 20.88 206.693 20.7382 207.444 20.3826C208.195 20.0136 208.8 19.4594 209.259 18.7197C209.733 17.9679 210.01 17.0802 210.091 16.0567C210.171 15.0332 210.036 14.1197 209.684 13.3164C209.346 12.5141 208.834 11.8787 208.149 11.4103C207.463 10.9418 206.662 10.6715 205.745 10.5994C204.828 10.5274 203.994 10.6691 203.244 11.0248C202.494 11.3805 201.882 11.9276 201.41 12.6661C200.95 13.4058 200.68 14.2873 200.6 15.3108C200.519 16.3343 200.648 17.2539 200.985 18.0695C201.336 18.8728 201.854 19.5154 202.539 19.9971C203.224 20.4656 204.025 20.7359 204.943 20.808Z" fill="black"/>
<path d="M230.261 12.5033L229.907 14.3291L224.115 13.2041L223.333 17.2289L227.849 18.106L227.494 19.9319L222.978 19.0547L221.819 25.0232L219.581 24.5884L222.231 10.9435L230.261 12.5033Z" fill="black"/>
<path d="M235.32 13.803L231.985 27.2971L229.772 26.7501L233.107 13.256L235.32 13.803Z" fill="black"/>
<path d="M251.615 18.6313L242.507 30.3579L239.986 29.5749L239.104 14.7462L241.434 15.4699L241.941 27.7317L249.323 17.9195L251.615 18.6313Z" fill="black"/>
<path d="M255.112 22.0804L253.632 25.8827L258.106 27.6234L257.431 29.3568L252.958 27.6161L251.413 31.586L256.445 33.5444L255.771 35.2778L248.613 32.4926L253.662 19.5202L260.819 22.3054L260.144 24.0388L255.112 22.0804Z" fill="black"/>
<path d="M279.365 41.5113C279.01 41.2996 278.784 41.0018 278.687 40.6179C278.59 40.234 278.647 39.8646 278.859 39.5096C279.071 39.1546 279.369 38.9286 279.753 38.8315C280.136 38.7344 280.506 38.7918 280.861 39.0035C281.204 39.2084 281.425 39.5028 281.522 39.8867C281.619 40.2706 281.562 40.64 281.35 40.995C281.138 41.35 280.84 41.576 280.456 41.6731C280.072 41.7701 279.709 41.7162 279.365 41.5113Z" fill="black"/>
<path d="M300.324 63.3629C299.616 62.7555 299.082 62.0874 298.723 61.3585C298.373 60.6195 298.232 59.8834 298.298 59.1501C298.365 58.4169 298.658 57.7466 299.179 57.1392L301.031 58.7271C300.681 59.2174 300.538 59.7438 300.6 60.3064C300.672 60.8776 300.997 61.4106 301.574 61.9052C302.171 62.4171 302.758 62.6745 303.335 62.6774C303.921 62.6702 304.409 62.4388 304.799 61.9833C305.103 61.6289 305.244 61.2493 305.222 60.8444C305.211 60.4481 305.1 60.0547 304.891 59.6643C304.691 59.2825 304.379 58.7864 303.953 58.1761C303.421 57.4039 303.016 56.74 302.736 56.1847C302.476 55.6279 302.363 55.022 302.398 54.3668C302.433 53.7117 302.732 53.0551 303.296 52.3971C303.817 51.7897 304.424 51.3884 305.118 51.1931C305.813 50.9979 306.537 51.0131 307.292 51.2387C308.047 51.4643 308.784 51.8852 309.503 52.5012C310.525 53.3776 311.139 54.3517 311.344 55.4233C311.568 56.4935 311.334 57.5044 310.641 58.456L308.728 56.816C309.027 56.4053 309.127 55.9201 309.027 55.3604C308.928 54.8007 308.604 54.2866 308.058 53.818C307.562 53.3928 307.048 53.1723 306.518 53.1564C305.987 53.1405 305.518 53.3704 305.11 53.8462C304.832 54.1701 304.698 54.5209 304.708 54.8983C304.737 55.2743 304.852 55.6532 305.051 56.035C305.251 56.4168 305.553 56.9042 305.958 57.4971C306.492 58.2882 306.894 58.9665 307.164 59.5319C307.445 60.1061 307.563 60.7258 307.52 61.391C307.495 62.0549 307.197 62.7208 306.624 63.389C306.164 63.9255 305.583 64.3059 304.882 64.53C304.191 64.7629 303.441 64.7874 302.632 64.6038C301.843 64.4187 301.073 64.005 300.324 63.3629Z" fill="black"/>
<path d="M315.829 61.0675L312.975 63.9839L316.406 67.3406L315.106 68.6702L311.675 65.3134L308.696 68.3585L312.555 72.1348L311.255 73.4644L305.765 68.0936L315.5 58.1435L320.989 63.5143L319.689 64.8438L315.829 61.0675Z" fill="black"/>
<path d="M331.394 75.117L317.536 80.4458L315.782 78.4721L322.694 65.3232L324.315 67.1474L318.408 77.9049L329.8 73.3227L331.394 75.117Z" fill="black"/>
<path d="M332.605 79.8774L329.372 82.367L332.301 86.1698L330.828 87.3048L327.899 83.5019L324.524 86.1014L327.819 90.3795L326.345 91.5145L321.659 85.43L332.687 76.9361L337.373 83.0206L335.9 84.1556L332.605 79.8774Z" fill="black"/>
<path d="M334.155 103.185L332.896 101.284L337.764 89.8337L329.109 95.5645L327.85 93.6635L339.456 85.9782L340.715 87.8792L335.865 99.3187L344.503 93.599L345.761 95.5L334.155 103.185Z" fill="black"/>
<path d="M341.194 112.023L344.136 117.774L342.373 118.676L338.202 110.521L339.787 109.71L351.747 110.826L348.814 105.092L350.577 104.191L354.748 112.345L353.164 113.156L341.194 112.023Z" fill="black"/>
<path d="M355.183 117.972L351.441 119.598L353.354 124L351.648 124.741L349.735 120.339L345.828 122.036L347.98 126.989L346.274 127.73L343.214 120.686L355.981 115.14L359.041 122.184L357.335 122.925L355.183 117.972Z" fill="black"/>
<path d="M349.627 137.01L353.789 132.128L353.204 130.489L347.967 132.357L347.201 130.21L360.293 125.54L361.906 130.061C362.264 131.066 362.391 131.976 362.286 132.792C362.185 133.621 361.9 134.31 361.43 134.86C360.966 135.422 360.369 135.833 359.641 136.093C358.787 136.397 357.918 136.424 357.036 136.172C356.171 135.929 355.429 135.337 354.81 134.397L350.541 139.572L349.627 137.01ZM354.918 129.878L355.765 132.252C356.052 133.055 356.468 133.586 357.013 133.845C357.562 134.116 358.176 134.131 358.854 133.889C359.533 133.647 359.988 133.258 360.222 132.722C360.468 132.181 360.445 131.502 360.154 130.686L359.308 128.313L354.918 129.878Z" fill="black"/>
<path d="M352.67 147.91C352.334 146.661 352.314 145.431 352.609 144.219C352.921 143.017 353.515 141.966 354.392 141.068C355.285 140.179 356.388 139.557 357.701 139.204C359.015 138.851 360.274 138.837 361.48 139.161C362.689 139.499 363.724 140.111 364.583 140.998C365.46 141.894 366.066 142.967 366.402 144.216C366.741 145.478 366.755 146.71 366.443 147.912C366.148 149.124 365.56 150.173 364.68 151.058C363.8 151.944 362.703 152.563 361.39 152.917C360.077 153.27 358.811 153.286 357.592 152.965C356.386 152.64 355.345 152.03 354.469 151.133C353.609 150.246 353.009 149.172 352.67 147.91ZM354.582 147.396C354.821 148.284 355.234 149.022 355.82 149.61C356.419 150.195 357.144 150.579 357.994 150.765C358.861 150.96 359.791 150.924 360.782 150.657C361.773 150.39 362.589 149.957 363.228 149.357C363.871 148.77 364.299 148.075 364.511 147.272C364.723 146.47 364.709 145.624 364.47 144.736C364.232 143.847 363.819 143.109 363.233 142.521C362.647 141.933 361.926 141.54 361.072 141.342C360.222 141.156 359.301 141.197 358.309 141.464C357.318 141.73 356.494 142.159 355.838 142.75C355.199 143.35 354.767 144.053 354.542 144.859C354.33 145.662 354.343 146.507 354.582 147.396Z" fill="black"/>
<path d="M370.88 168.476L369.041 168.752L368.163 162.918L364.109 163.528L364.793 168.077L362.954 168.354L362.269 163.805L356.257 164.709L355.918 162.455L369.663 160.387L370.88 168.476Z" fill="black"/>
<path d="M371.348 173.678L357.516 175.051L357.291 172.782L371.123 171.409L371.348 173.678Z" fill="black"/>
<path d="M372.25 190.649L358.152 185.99L358.046 183.353L371.725 177.559L371.823 179.997L360.438 184.578L372.154 188.251L372.25 190.649Z" fill="black"/>
<path d="M370.171 195.099L366.093 194.977L365.949 199.774L364.09 199.719L364.233 194.921L359.975 194.794L359.814 200.191L357.955 200.135L358.184 192.459L372.098 192.875L371.868 200.552L370.009 200.496L370.171 195.099Z" fill="black"/>
<path d="M359.975 224.456C360.056 224.051 360.261 223.738 360.59 223.518C360.919 223.298 361.287 223.229 361.692 223.31C362.098 223.39 362.41 223.595 362.63 223.925C362.85 224.254 362.92 224.621 362.839 225.027C362.761 225.419 362.557 225.725 362.228 225.945C361.898 226.165 361.531 226.234 361.126 226.154C360.72 226.073 360.408 225.868 360.188 225.539C359.968 225.209 359.897 224.849 359.975 224.456Z" fill="black"/>
<path d="M346.397 251.519C346.732 250.648 347.183 249.921 347.75 249.339C348.329 248.762 348.975 248.382 349.689 248.2C350.402 248.017 351.132 248.069 351.878 248.357L351.002 250.634C350.423 250.468 349.879 250.509 349.369 250.755C348.855 251.015 348.461 251.499 348.188 252.208C347.906 252.942 347.86 253.582 348.05 254.127C348.253 254.676 348.634 255.059 349.194 255.274C349.63 255.442 350.035 255.448 350.409 255.292C350.779 255.148 351.112 254.912 351.41 254.584C351.703 254.268 352.066 253.808 352.499 253.203C353.049 252.443 353.538 251.839 353.968 251.39C354.406 250.958 354.939 250.649 355.568 250.463C356.197 250.276 356.916 250.338 357.725 250.65C358.471 250.937 359.053 251.375 359.469 251.964C359.885 252.553 360.114 253.241 360.154 254.028C360.194 254.815 360.043 255.65 359.703 256.533C359.22 257.79 358.507 258.694 357.566 259.247C356.633 259.816 355.602 259.933 354.473 259.599L355.378 257.247C355.865 257.392 356.356 257.324 356.85 257.042C357.344 256.761 357.721 256.284 357.979 255.612C358.214 255.003 358.25 254.445 358.087 253.94C357.925 253.434 357.551 253.069 356.966 252.844C356.568 252.69 356.193 252.682 355.84 252.818C355.496 252.971 355.177 253.205 354.884 253.521C354.591 253.837 354.233 254.285 353.809 254.865C353.243 255.632 352.738 256.238 352.296 256.682C351.848 257.139 351.304 257.458 350.663 257.639C350.029 257.838 349.301 257.78 348.48 257.464C347.821 257.21 347.268 256.79 346.822 256.204C346.371 255.631 346.097 254.932 346 254.109C345.91 253.303 346.042 252.439 346.397 251.519Z" fill="black"/>
<path d="M353.748 265.361L350.045 263.648L348.03 268.004L346.342 267.224L348.357 262.867L344.491 261.079L342.224 265.98L340.536 265.199L343.76 258.228L356.394 264.072L353.169 271.043L351.481 270.262L353.748 265.361Z" fill="black"/>
<path d="M345.717 284.731L336.058 273.454L337.331 271.141L352.035 273.255L350.858 275.392L338.744 273.426L346.874 282.628L345.717 284.731Z" fill="black"/>
<path d="M341.636 287.464L338.208 285.251L335.605 289.284L334.042 288.275L336.646 284.243L333.067 281.932L330.138 286.469L328.575 285.46L332.741 279.008L344.435 286.558L340.27 293.01L338.707 292.001L341.636 287.464Z" fill="black"/>
<path d="M320.191 296.725L321.561 294.903L333.98 295.658L325.683 289.42L327.054 287.597L338.179 295.963L336.809 297.785L324.406 297.042L332.687 303.268L331.316 305.09L320.191 296.725Z" fill="black"/>
<path d="M314.218 306.315L309.783 311.012L308.343 309.653L314.632 302.993L315.926 304.215L318.877 315.859L323.299 311.177L324.738 312.536L318.45 319.196L317.155 317.974L314.218 306.315Z" fill="black"/>
<path d="M313.293 321.489L310.509 318.506L307 321.782L305.731 320.422L309.239 317.147L306.332 314.033L302.385 317.717L301.116 316.358L306.73 311.117L316.229 321.292L310.615 326.533L309.345 325.174L313.293 321.489Z" fill="black"/>
<path d="M293.493 322.623L299.486 324.911L300.835 323.812L297.322 319.502L299.09 318.062L307.871 328.837L304.15 331.869C303.323 332.543 302.508 332.967 301.703 333.141C300.889 333.323 300.144 333.285 299.469 333.027C298.784 332.777 298.197 332.352 297.708 331.753C297.135 331.05 296.82 330.24 296.762 329.325C296.701 328.428 297.011 327.531 297.69 326.633L291.384 324.341L293.493 322.623ZM301.985 325.223L300.031 326.815C299.37 327.354 299.008 327.924 298.947 328.524C298.876 329.133 299.067 329.716 299.522 330.274C299.977 330.832 300.496 331.132 301.08 331.172C301.671 331.223 302.303 330.975 302.975 330.427L304.929 328.835L301.985 325.223Z" fill="black"/>
<path d="M284.239 329.138C285.304 328.404 286.457 327.973 287.697 327.846C288.935 327.737 290.123 327.946 291.263 328.471C292.4 329.015 293.355 329.847 294.127 330.966C294.899 332.086 295.334 333.268 295.432 334.513C295.518 335.765 295.288 336.945 294.739 338.052C294.188 339.178 293.38 340.108 292.315 340.842C291.24 341.584 290.083 342.01 288.846 342.118C287.606 342.245 286.421 342.042 285.291 341.509C284.162 340.976 283.212 340.15 282.439 339.031C281.667 337.911 281.228 336.724 281.123 335.468C281.025 334.223 281.252 333.038 281.804 331.912C282.352 330.805 283.164 329.88 284.239 329.138ZM285.364 330.768C284.607 331.29 284.049 331.926 283.691 332.675C283.341 333.435 283.221 334.247 283.331 335.111C283.437 335.993 283.782 336.857 284.365 337.702C284.948 338.547 285.63 339.17 286.409 339.572C287.177 339.981 287.975 340.152 288.803 340.083C289.63 340.014 290.422 339.719 291.179 339.196C291.937 338.674 292.494 338.038 292.852 337.289C293.21 336.54 293.339 335.73 293.241 334.858C293.131 333.995 292.784 333.14 292.201 332.295C291.618 331.45 290.938 330.817 290.162 330.397C289.383 329.995 288.576 329.823 287.741 329.881C286.914 329.95 286.121 330.245 285.364 330.768Z" fill="black"/>
<path d="M270.953 353.18L270.076 351.539L275.281 348.76L273.349 345.143L269.291 347.31L268.415 345.67L272.473 343.503L269.608 338.14L271.62 337.066L278.168 349.326L270.953 353.18Z" fill="black"/>
<path d="M266.207 355.362L260.285 342.787L262.347 341.815L268.27 354.391L266.207 355.362Z" fill="black"/>
<path d="M250.516 361.891L250.189 347.047L252.639 346.065L262.675 357.016L260.41 357.924L252.285 348.728L252.744 360.998L250.516 361.891Z" fill="black"/>
<path d="M245.627 361.42L244.378 357.536L239.808 359.006L239.239 357.236L243.808 355.766L242.503 351.71L237.363 353.364L236.793 351.594L244.104 349.241L248.367 362.492L241.056 364.845L240.487 363.074L245.627 361.42Z" fill="black"/>
<path d="M214.55 361.636C214.959 361.576 215.323 361.665 215.64 361.901C215.958 362.138 216.146 362.461 216.206 362.87C216.265 363.279 216.177 363.642 215.94 363.96C215.703 364.277 215.38 364.466 214.971 364.525C214.576 364.583 214.219 364.493 213.901 364.257C213.584 364.02 213.396 363.697 213.336 363.288C213.276 362.879 213.365 362.516 213.602 362.198C213.838 361.881 214.155 361.693 214.55 361.636Z" fill="black"/>
</svg>
